<svg width="1680" height="1080" viewBox="0 0 1680 1080" xmlns="http://www.w3.org/2000/svg" role="img" aria-label="MoneyFly macOS home">
  <defs>
    <linearGradient id="bg" x1="0" y1="0" x2="0" y2="1">
      <stop offset="0%" stop-color="#08111f"/>
      <stop offset="100%" stop-color="#091827"/>
    </linearGradient>
    <linearGradient id="panel" x1="0" y1="0" x2="1" y2="1">
      <stop offset="0%" stop-color="#0c1a2b"/>
      <stop offset="100%" stop-color="#11243b"/>
    </linearGradient>
    <linearGradient id="accent" x1="0" y1="0" x2="1" y2="1">
      <stop offset="0%" stop-color="#25d0ff"/>
      <stop offset="100%" stop-color="#33f0b2"/>
    </linearGradient>
    <filter id="shadow" x="-20%" y="-20%" width="140%" height="140%">
      <feDropShadow dx="0" dy="18" stdDeviation="24" flood-color="#000" flood-opacity="0.38"/>
    </filter>
  </defs>
  <rect width="1680" height="1080" fill="url(#bg)"/>
  <rect x="76" y="54" width="1528" height="972" rx="28" fill="#0b1525" stroke="#203956" filter="url(#shadow)"/>
  <rect x="76" y="54" width="1528" height="74" rx="28" fill="#0e1d31"/>
  <circle cx="114" cy="91" r="8" fill="#ff5f57"/><circle cx="140" cy="91" r="8" fill="#febc2e"/><circle cx="166" cy="91" r="8" fill="#28c840"/>
  <text x="214" y="98" fill="#eef6ff" font-family="Inter, Arial, sans-serif" font-size="18" font-weight="700">MoneyFly</text>
  <rect x="1260" y="70" width="288" height="38" rx="19" fill="#12233c" stroke="#28486f"/>
  <text x="1280" y="95" fill="#8ca2c5" font-family="Inter, Arial, sans-serif" font-size="14">Search nodes, profiles, devices</text>

  <rect x="96" y="154" width="256" height="850" rx="22" fill="#0f2036" stroke="#203d61"/>
  <text x="122" y="192" fill="#8ca2c5" font-family="Inter, Arial, sans-serif" font-size="13">ACCOUNT</text>
  <rect x="112" y="214" width="224" height="82" rx="18" fill="#12233c" stroke="#294a73"/>
  <circle cx="150" cy="255" r="20" fill="url(#accent)"/>
  <text x="186" y="244" fill="#eef6ff" font-family="Inter, Arial, sans-serif" font-size="18" font-weight="700">MoneyFly</text>
  <text x="186" y="267" fill="#8ca2c5" font-family="Inter, Arial, sans-serif" font-size="13">Pro plan · expires 2026-08-15</text>
  <text x="122" y="344" fill="#8ca2c5" font-family="Inter, Arial, sans-serif" font-size="13">NAVIGATION</text>
  <g font-family="Inter, Arial, sans-serif" font-size="15">
    <rect x="112" y="364" width="224" height="44" rx="14" fill="#10283f"/><text x="138" y="392" fill="#eaf3ff">Home</text>
    <rect x="112" y="418" width="224" height="44" rx="14" fill="#0f2036" stroke="#203d61"/><text x="138" y="446" fill="#c2d4ee">Device management</text>
    <rect x="112" y="472" width="224" height="44" rx="14" fill="#0f2036" stroke="#203d61"/><text x="138" y="500" fill="#c2d4ee">Package purchase</text>
    <rect x="112" y="526" width="224" height="44" rx="14" fill="#0f2036" stroke="#203d61"/><text x="138" y="554" fill="#c2d4ee">Settings</text>
  </g>

  <rect x="376" y="154" width="1162" height="850" rx="22" fill="url(#panel)" stroke="#21405f"/>
  <g>
    <text x="412" y="194" fill="#eef6ff" font-family="Inter, Arial, sans-serif" font-size="28" font-weight="700">Dashboard</text>
    <text x="412" y="220" fill="#8ca2c5" font-family="Inter, Arial, sans-serif" font-size="14">User state, devices, subscription and connection controls</text>
  </g>
  <g>
    <rect x="412" y="252" width="244" height="132" rx="18" fill="#10233b" stroke="#294a73"/>
    <text x="436" y="286" fill="#8ca2c5" font-family="Inter, Arial, sans-serif" font-size="13">EXPIRY</text>
    <text x="436" y="324" fill="#eef6ff" font-family="Inter, Arial, sans-serif" font-size="28" font-weight="700">2026-08-15</text>
    <text x="436" y="350" fill="#6ef5c2" font-family="Inter, Arial, sans-serif" font-size="14">Active 29 days left</text>
    <rect x="676" y="252" width="244" height="132" rx="18" fill="#10233b" stroke="#294a73"/>
    <text x="700" y="286" fill="#8ca2c5" font-family="Inter, Arial, sans-serif" font-size="13">DEVICE USAGE</text>
    <text x="700" y="324" fill="#eef6ff" font-family="Inter, Arial, sans-serif" font-size="28" font-weight="700">3 / 5</text>
    <text x="700" y="350" fill="#ffd48a" font-family="Inter, Arial, sans-serif" font-size="14">This device bound</text>
    <rect x="940" y="252" width="244" height="132" rx="18" fill="#10233b" stroke="#294a73"/>
    <text x="964" y="286" fill="#8ca2c5" font-family="Inter, Arial, sans-serif" font-size="13">CURRENT IP</text>
    <text x="964" y="320" fill="#eef6ff" font-family="Inter, Arial, sans-serif" font-size="24" font-weight="700">198.51.100.24</text>
    <text x="964" y="348" fill="#8ca2c5" font-family="Inter, Arial, sans-serif" font-size="14">Latency 42 ms</text>
    <!-- Speed cards -->
    <rect x="1204" y="252" width="184" height="132" rx="18" fill="#10233b" stroke="#294a73"/>
    <text x="1228" y="286" fill="#8ca2c5" font-family="Inter, Arial, sans-serif" font-size="13">↑ UPLOAD</text>
    <text x="1228" y="316" fill="#33f0b2" font-family="Inter, Arial, sans-serif" font-size="22" font-weight="700">1.2 MB/s</text>
    <text x="1228" y="344" fill="#8ca2c5" font-family="Inter, Arial, sans-serif" font-size="13">↓ DOWNLOAD</text>
    <text x="1228" y="368" fill="#25d0ff" font-family="Inter, Arial, sans-serif" font-size="18" font-weight="700">8.7 MB/s</text>
    <rect x="1404" y="252" width="160" height="132" rx="18" fill="#10233b" stroke="#294a73"/>
    <text x="1428" y="286" fill="#8ca2c5" font-family="Inter, Arial, sans-serif" font-size="13">CONNECTED</text>
    <text x="1428" y="324" fill="#eef6ff" font-family="Inter, Arial, sans-serif" font-size="26" font-weight="700">01:24:36</text>
    <text x="1428" y="350" fill="#6ef5c2" font-family="Inter, Arial, sans-serif" font-size="13">hh:mm:ss</text>
  </g>
  <g>
    <text x="412" y="444" fill="#8ca2c5" font-family="Inter, Arial, sans-serif" font-size="13">MODE</text>
    <rect x="412" y="464" width="540" height="64" rx="18" fill="#0f2036" stroke="#203d61"/>
    <rect x="424" y="476" width="118" height="40" rx="14" fill="url(#accent)"/>
    <text x="461" y="502" fill="#04111a" font-family="Inter, Arial, sans-serif" font-size="15" font-weight="700">RULE</text>
    <rect x="550" y="476" width="118" height="40" rx="14" fill="#10283f"/>
    <text x="584" y="502" fill="#c2d4ee" font-family="Inter, Arial, sans-serif" font-size="15">GLOBAL</text>
    <rect x="676" y="476" width="118" height="40" rx="14" fill="#10283f"/>
    <text x="713" y="502" fill="#c2d4ee" font-family="Inter, Arial, sans-serif" font-size="15">DIRECT</text>
    <rect x="802" y="476" width="138" height="40" rx="14" fill="#102f31" stroke="#1f6d5a"/>
    <text x="839" y="502" fill="#73f7c3" font-family="Inter, Arial, sans-serif" font-size="15">TUN ON</text>
  </g>
  <g>
    <rect x="412" y="562" width="284" height="284" rx="26" fill="#10233b" stroke="#294a73"/>
    <circle cx="554" cy="704" r="92" fill="#0e2037" stroke="#294a73" stroke-width="6"/>
    <path d="M514 704 L546 672 L584 704 L546 736 Z" fill="url(#accent)"/>
    <text x="488" y="828" fill="#8ca2c5" font-family="Inter, Arial, sans-serif" font-size="13">Large connect / disconnect button</text>
    <text x="518" y="854" fill="#eef6ff" font-family="Inter, Arial, sans-serif" font-size="22" font-weight="700">Connected</text>
  </g>
  <g>
    <rect x="716" y="562" width="806" height="284" rx="26" fill="#10233b" stroke="#294a73"/>
    <text x="742" y="598" fill="#8ca2c5" font-family="Inter, Arial, sans-serif" font-size="13">CURRENT NODE</text>
    <text x="742" y="640" fill="#eef6ff" font-family="Inter, Arial, sans-serif" font-size="28" font-weight="700">HK-02 Optimized</text>
    <text x="742" y="672" fill="#6ef5c2" font-family="Inter, Arial, sans-serif" font-size="14">Auto selected fastest node on startup</text>
    <rect x="742" y="706" width="740" height="86" rx="18" fill="#0f2036" stroke="#203d61"/>
    <text x="768" y="738" fill="#c2d4ee" font-family="Inter, Arial, sans-serif" font-size="16">1. HK-02 Optimized</text>
    <text x="768" y="764" fill="#8ca2c5" font-family="Inter, Arial, sans-serif" font-size="13">42 ms</text>
    <text x="1058" y="738" fill="#c2d4ee" font-family="Inter, Arial, sans-serif" font-size="16">2. SG-01 Stable</text>
    <text x="1058" y="764" fill="#8ca2c5" font-family="Inter, Arial, sans-serif" font-size="13">53 ms</text>
    <text x="1324" y="738" fill="#c2d4ee" font-family="Inter, Arial, sans-serif" font-size="16">3. JP-04</text>
    <text x="1324" y="764" fill="#8ca2c5" font-family="Inter, Arial, sans-serif" font-size="13">66 ms</text>
  </g>
</svg>
