<svg width="960" height="360" viewBox="0 0 960 360" xmlns="http://www.w3.org/2000/svg" role="img" aria-label="MoneyFly logo">
  <defs>
    <linearGradient id="bg" x1="0" y1="0" x2="1" y2="1">
      <stop offset="0%" stop-color="#07111f"/>
      <stop offset="100%" stop-color="#0d1d33"/>
    </linearGradient>
    <linearGradient id="mark" x1="0" y1="0" x2="1" y2="1">
      <stop offset="0%" stop-color="#25d0ff"/>
      <stop offset="55%" stop-color="#33f0b2"/>
      <stop offset="100%" stop-color="#ffffff"/>
    </linearGradient>
    <filter id="shadow" x="-30%" y="-30%" width="160%" height="160%">
      <feDropShadow dx="0" dy="18" stdDeviation="20" flood-color="#000000" flood-opacity="0.45"/>
    </filter>
  </defs>
  <rect width="960" height="360" fill="url(#bg)"/>
  <g filter="url(#shadow)">
    <rect x="68" y="58" width="824" height="244" rx="28" fill="#0b1729" stroke="#1b3556"/>
  </g>
  <g transform="translate(128 180)">
    <circle r="74" fill="#0f2038" stroke="#203d61" stroke-width="3"/>
    <path d="M-28 -10 L-6 -42 L16 -10 L36 -42 L58 -10 L36 22 L16 -10 L-6 22 Z" fill="url(#mark)"/>
    <path d="M-40 38 H40" stroke="#25d0ff" stroke-width="8" stroke-linecap="round"/>
    <path d="M-40 56 H22" stroke="#33f0b2" stroke-width="8" stroke-linecap="round"/>
  </g>
  <g fill="#e8f2ff">
    <text x="240" y="164" font-family="Inter, Arial, sans-serif" font-size="48" font-weight="700" letter-spacing="1">MoneyFly</text>
    <text x="242" y="208" font-family="Inter, Arial, sans-serif" font-size="20" fill="#8ca2c5">Client portal for subscription, device and payment control</text>
  </g>
  <g>
    <rect x="240" y="226" width="128" height="34" rx="17" fill="#122643" stroke="#294a73"/>
    <text x="262" y="248" font-family="Inter, Arial, sans-serif" font-size="14" fill="#9fb3d4">SECURE LOGIN</text>
  </g>
  <g>
    <rect x="384" y="226" width="104" height="34" rx="17" fill="#10342d" stroke="#1f6d5a"/>
    <text x="408" y="248" font-family="Inter, Arial, sans-serif" font-size="14" fill="#6ef5c2">TUN READY</text>
  </g>
  <g>
    <rect x="504" y="226" width="114" height="34" rx="17" fill="#36250f" stroke="#8b5d18"/>
    <text x="524" y="248" font-family="Inter, Arial, sans-serif" font-size="14" fill="#ffd48a">PAY IN APP</text>
  </g>
</svg>
