<svg width="2200" height="1400" viewBox="0 0 2200 1400" xmlns="http://www.w3.org/2000/svg" role="img" aria-label="MoneyFly tablet home landscape">
  <defs>
    <linearGradient id="bg" x1="0" y1="0" x2="1" y2="1">
      <stop offset="0%" stop-color="#07111f"/>
      <stop offset="100%" stop-color="#091827"/>
    </linearGradient>
    <linearGradient id="accent" x1="0" y1="0" x2="1" y2="1">
      <stop offset="0%" stop-color="#25d0ff"/>
      <stop offset="100%" stop-color="#33f0b2"/>
    </linearGradient>
  </defs>
  <rect width="2200" height="1400" fill="url(#bg)"/>
  <rect x="54" y="54" width="2092" height="1292" rx="28" fill="#0d1928" stroke="#203956"/>
  <rect x="54" y="54" width="2092" height="74" rx="28" fill="#101a28"/>
  <text x="86" y="100" fill="#eef6ff" font-family="Inter, Arial, sans-serif" font-size="20" font-weight="700">MoneyFly tablet landscape</text>

  <rect x="82" y="154" width="310" height="1170" rx="24" fill="#0f2035" stroke="#203956"/>
  <text x="114" y="192" fill="#8ca2c5" font-family="Inter, Arial, sans-serif" font-size="13">HOME</text>
  <rect x="112" y="212" width="250" height="78" rx="18" fill="#12233c" stroke="#294a73"/>
  <text x="136" y="246" fill="#eef6ff" font-family="Inter, Arial, sans-serif" font-size="18" font-weight="700">MoneyFly</text>
  <text x="136" y="270" fill="#8ca2c5" font-family="Inter, Arial, sans-serif" font-size="13">Plan summary</text>
  <rect x="112" y="316" width="250" height="52" rx="14" fill="#10283f"/><text x="136" y="349" fill="#eef6ff" font-family="Inter, Arial, sans-serif" font-size="15">Dashboard</text>
  <rect x="112" y="378" width="250" height="52" rx="14" fill="#0f2035" stroke="#203956"/><text x="136" y="411" fill="#c2d4ee" font-family="Inter, Arial, sans-serif" font-size="15">Devices</text>
  <rect x="112" y="440" width="250" height="52" rx="14" fill="#0f2035" stroke="#203956"/><text x="136" y="473" fill="#c2d4ee" font-family="Inter, Arial, sans-serif" font-size="15">Packages</text>
  <rect x="112" y="502" width="250" height="52" rx="14" fill="#0f2035" stroke="#203956"/><text x="136" y="535" fill="#c2d4ee" font-family="Inter, Arial, sans-serif" font-size="15">Settings</text>

  <rect x="414" y="154" width="1702" height="1170" rx="24" fill="#101f33" stroke="#21405f"/>
  <text x="452" y="196" fill="#eef6ff" font-family="Inter, Arial, sans-serif" font-size="30" font-weight="700">Overview</text>
  <text x="452" y="224" fill="#8ca2c5" font-family="Inter, Arial, sans-serif" font-size="14">Designed to keep home controls, node switchers, and device state on one screen</text>

  <rect x="452" y="258" width="340" height="144" rx="20" fill="#12233c" stroke="#294a73"/>
  <text x="478" y="292" fill="#8ca2c5" font-family="Inter, Arial, sans-serif" font-size="13">ACCOUNT</text>
  <text x="478" y="332" fill="#eef6ff" font-family="Inter, Arial, sans-serif" font-size="28" font-weight="700">MoneyFly</text>
  <text x="478" y="362" fill="#6ef5c2" font-family="Inter, Arial, sans-serif" font-size="14">Expires 2026-08-15</text>
  <rect x="814" y="258" width="340" height="144" rx="20" fill="#12233c" stroke="#294a73"/>
  <text x="840" y="292" fill="#8ca2c5" font-family="Inter, Arial, sans-serif" font-size="13">DEVICE</text>
  <text x="840" y="332" fill="#eef6ff" font-family="Inter, Arial, sans-serif" font-size="28" font-weight="700">3 / 5</text>
  <text x="840" y="362" fill="#ffd48a" font-family="Inter, Arial, sans-serif" font-size="14">Current device selected</text>
  <rect x="1176" y="258" width="340" height="144" rx="20" fill="#12233c" stroke="#294a73"/>
  <text x="1202" y="292" fill="#8ca2c5" font-family="Inter, Arial, sans-serif" font-size="13">IP</text>
  <text x="1202" y="332" fill="#eef6ff" font-family="Inter, Arial, sans-serif" font-size="28" font-weight="700">198.51.100.24</text>
  <text x="1202" y="362" fill="#8ca2c5" font-family="Inter, Arial, sans-serif" font-size="14">Latency 42 ms</text>

  <rect x="452" y="438" width="1584" height="94" rx="22" fill="#0f2035" stroke="#203956"/>
  <rect x="474" y="458" width="124" height="54" rx="16" fill="url(#accent)"/><text x="510" y="492" fill="#04111a" font-family="Inter, Arial, sans-serif" font-size="16" font-weight="700">RULE</text>
  <rect x="610" y="458" width="124" height="54" rx="16" fill="#10283f"/><text x="639" y="492" fill="#c2d4ee" font-family="Inter, Arial, sans-serif" font-size="16">GLOBAL</text>
  <rect x="746" y="458" width="124" height="54" rx="16" fill="#10283f"/><text x="777" y="492" fill="#c2d4ee" font-family="Inter, Arial, sans-serif" font-size="16">DIRECT</text>
  <rect x="892" y="458" width="150" height="54" rx="16" fill="#102f31" stroke="#1f6d5a"/><text x="934" y="492" fill="#73f7c3" font-family="Inter, Arial, sans-serif" font-size="16">TUN</text>

  <circle cx="790" cy="816" r="150" fill="#0f2139" stroke="#294a73" stroke-width="8"/>
  <path d="M728 816 L790 754 L852 816 L790 878 Z" fill="url(#accent)"/>
  <text x="688" y="1000" fill="#8ca2c5" font-family="Inter, Arial, sans-serif" font-size="14">Primary connect control kept large on tablet</text>

  <rect x="1014" y="596" width="1022" height="448" rx="24" fill="#12233c" stroke="#294a73"/>
  <text x="1046" y="632" fill="#8ca2c5" font-family="Inter, Arial, sans-serif" font-size="13">NODES</text>
  <rect x="1046" y="656" width="958" height="76" rx="16" fill="#0f2035" stroke="#203956"/>
  <text x="1074" y="694" fill="#eef6ff" font-family="Inter, Arial, sans-serif" font-size="18" font-weight="700">HK-02 Optimized</text>
  <text x="1850" y="694" fill="#6ef5c2" font-family="Inter, Arial, sans-serif" font-size="14">42 ms</text>
  <rect x="1046" y="748" width="958" height="76" rx="16" fill="#0f2035" stroke="#203956"/>
  <text x="1074" y="786" fill="#c2d4ee" font-family="Inter, Arial, sans-serif" font-size="18">SG-01 Stable</text>
  <text x="1850" y="786" fill="#8ca2c5" font-family="Inter, Arial, sans-serif" font-size="14">53 ms</text>
  <rect x="1046" y="840" width="958" height="76" rx="16" fill="#0f2035" stroke="#203956"/>
  <text x="1074" y="878" fill="#c2d4ee" font-family="Inter, Arial, sans-serif" font-size="18">JP-04</text>
  <text x="1850" y="878" fill="#8ca2c5" font-family="Inter, Arial, sans-serif" font-size="14">66 ms</text>
</svg>
